<?xml version="1.0" encoding="iso-8859-1"?>
<!-- Uploaded to: SVG Repo, www.svgrepo.com, Generator: SVG Repo Mixer Tools -->
<svg height="800px" width="800px" version="1.1" id="Layer_1" xmlns="http://www.w3.org/2000/svg" xmlns:xlink="http://www.w3.org/1999/xlink" 
	 viewBox="0 0 512 512" xml:space="preserve">
<path style="fill:#74D6FF;" d="M256,0.001L256,0.001c-141.385,0-256,114.615-256,256l0,0c0,141.384,114.615,255.999,256,255.999l0,0
	c141.384,0,256-114.615,256-255.999l0,0C512,114.615,397.385,0.001,256,0.001z"/>
<ellipse style="fill:#FFFFFF;" cx="255.998" cy="255.998" rx="110.324" ry="60.1"/>
<circle style="fill:#64B9DC;" cx="255.998" cy="255.998" r="35.283"/>
<g>
	<path style="fill:#464655;" d="M215.696,169.923c-2.421,0-4.823-1.031-6.501-3.031l-56.011-66.821h-44.856
		c-4.681,0-8.476-3.795-8.476-8.476s3.795-8.476,8.476-8.476h48.812c2.507,0,4.886,1.11,6.496,3.031l58.551,69.852
		c3.007,3.587,2.536,8.934-1.051,11.941C219.55,169.273,217.617,169.923,215.696,169.923z"/>
	<path style="fill:#464655;" d="M66.73,38.721H17.918c-4.681,0-8.476-3.795-8.476-8.476s3.795-8.476,8.476-8.476H66.73
		c4.681,0,8.476,3.795,8.476,8.476S71.411,38.721,66.73,38.721z"/>
	<path style="fill:#464655;" d="M66.73,69.395H17.918c-4.681,0-8.476-3.795-8.476-8.476s3.795-8.476,8.476-8.476H66.73
		c4.681,0,8.476,3.795,8.476,8.476S71.411,69.395,66.73,69.395z"/>
	<path style="fill:#464655;" d="M66.73,100.069H17.918c-4.681,0-8.476-3.795-8.476-8.476c0-4.681,3.795-8.476,8.476-8.476H66.73
		c4.681,0,8.476,3.795,8.476,8.476C75.206,96.274,71.411,100.069,66.73,100.069z"/>
	<path style="fill:#464655;" d="M296.304,169.923c-1.921,0-3.853-0.65-5.44-1.98c-3.587-3.007-4.058-8.354-1.051-11.941
		l58.551-69.852c1.61-1.921,3.989-3.031,6.496-3.031h48.812c4.681,0,8.476,3.795,8.476,8.476s-3.795,8.476-8.476,8.476h-44.856
		l-56.011,66.821C301.127,168.891,298.724,169.923,296.304,169.923z"/>
	<path style="fill:#464655;" d="M494.081,38.721h-48.812c-4.681,0-8.476-3.795-8.476-8.476s3.795-8.476,8.476-8.476h48.812
		c4.681,0,8.476,3.795,8.476,8.476S498.763,38.721,494.081,38.721z"/>
	<path style="fill:#464655;" d="M494.081,69.395h-48.812c-4.681,0-8.476-3.795-8.476-8.476s3.795-8.476,8.476-8.476h48.812
		c4.681,0,8.476,3.795,8.476,8.476S498.763,69.395,494.081,69.395z"/>
	<path style="fill:#464655;" d="M494.081,100.069h-48.812c-4.681,0-8.476-3.795-8.476-8.476c0-4.681,3.795-8.476,8.476-8.476h48.812
		c4.681,0,8.476,3.795,8.476,8.476C502.557,96.274,498.763,100.069,494.081,100.069z"/>
	<path style="fill:#464655;" d="M157.14,428.884h-48.812c-4.681,0-8.476-3.795-8.476-8.476s3.795-8.476,8.476-8.476h44.856
		l56.011-66.821c3.007-3.588,8.353-4.058,11.941-1.051c3.587,3.007,4.058,8.354,1.051,11.941l-58.551,69.852
		C162.026,427.774,159.648,428.884,157.14,428.884z"/>
	<path style="fill:#464655;" d="M66.73,490.232H17.918c-4.681,0-8.476-3.795-8.476-8.476s3.795-8.476,8.476-8.476H66.73
		c4.681,0,8.476,3.795,8.476,8.476S71.411,490.232,66.73,490.232z"/>
	<path style="fill:#464655;" d="M66.73,459.558H17.918c-4.681,0-8.476-3.795-8.476-8.476s3.795-8.476,8.476-8.476H66.73
		c4.681,0,8.476,3.795,8.476,8.476S71.411,459.558,66.73,459.558z"/>
	<path style="fill:#464655;" d="M66.73,428.884H17.918c-4.681,0-8.476-3.795-8.476-8.476s3.795-8.476,8.476-8.476H66.73
		c4.681,0,8.476,3.795,8.476,8.476S71.411,428.884,66.73,428.884z"/>
	<path style="fill:#464655;" d="M403.67,428.884h-48.812c-2.507,0-4.886-1.11-6.496-3.031L289.811,356
		c-3.007-3.587-2.536-8.934,1.051-11.941c3.587-3.007,8.933-2.536,11.941,1.051l56.01,66.821h44.856
		c4.681,0,8.476,3.795,8.476,8.476S408.352,428.884,403.67,428.884z"/>
	<path style="fill:#464655;" d="M494.081,490.232h-48.812c-4.681,0-8.476-3.795-8.476-8.476s3.795-8.476,8.476-8.476h48.812
		c4.681,0,8.476,3.795,8.476,8.476S498.763,490.232,494.081,490.232z"/>
	<path style="fill:#464655;" d="M494.081,459.558h-48.812c-4.681,0-8.476-3.795-8.476-8.476s3.795-8.476,8.476-8.476h48.812
		c4.681,0,8.476,3.795,8.476,8.476S498.763,459.558,494.081,459.558z"/>
	<path style="fill:#464655;" d="M494.081,428.884h-48.812c-4.681,0-8.476-3.795-8.476-8.476s3.795-8.476,8.476-8.476h48.812
		c4.681,0,8.476,3.795,8.476,8.476S498.763,428.884,494.081,428.884z"/>
</g>
</svg>